# xmcd CD database file
#
# Track frame offsets:
#	150
#	36502
#	58682
#	78145
#	100283
#	121603
#	146376
#	167061
#	185886
#
# Disc length: 2928 seconds
#
# Revision: 1
# Processed by: cddbd v1.5.2PL0 Copyright (c) Steve Scherf et al.
# Submitted via: CDex 1.70beta2
#
DISCID=750b6e09
DTITLE=Alberto Menéndez Quartet - Waiting For Naima
DYEAR=2002
DGENRE=Jazz
TTITLE0=Rotation
TTITLE1=Waiting for Naima
TTITLE2=I've Never Been To New Orleans
TTITLE3=Monkish
TTITLE4=Mr. Brain
TTITLE5=Bronx
TTITLE6=On The Edge
TTITLE7=Ritmo
TTITLE8=My Foolish Heart
EXTD=YEAR: 2002
EXTT0=
EXTT1=
EXTT2=
EXTT3=
EXTT4=
EXTT5=
EXTT6=
EXTT7=
EXTT8=
PLAYORDER=
